<svg>
    <symbol id="icon-edit" viewBox="0 0 1025 1024">
        <path d="M872.151 140.134c-22.912-22.002-48.224-33.134-75.224-33.134-42.22 0-73.017 27.324-81.455 35.697-11.877 11.682-348.631 348.404-348.631 348.404-2.629 2.693-4.576 6.004-5.549 9.638-9.119 33.75-54.844 183.613-55.298 185.106-2.369 7.658-0.26 16.031 5.387 21.646 4.057 4.057 9.475 6.198 15.025 6.198 2.174 0 4.381-0.324 6.522-0.974 1.557-0.552 155.996-50.527 181.406-58.121 3.342-1.006 6.393-2.823 8.892-5.257 16.064-15.869 325.557-321.014 350.643-346.879 25.897-26.74 38.748-54.584 38.26-82.752-0.455-27.779-13.987-54.584-39.981-79.572zM837.396 267.053c-14.182 14.603-124.875 124.129-329.030 325.525l-15.609 15.447c-23.397 7.269-79.475 25.28-121.824 38.975 13.63-45.141 30.018-99.595 37.319-125.362 43.647-43.647 332.146-332.080 343.115-342.92 2.142-2.109 21.613-20.866 45.563-20.866 13.63 0 26.74 6.198 40.078 19.017 15.934 15.318 24.112 30.018 24.371 43.745 0.228 14.116-7.853 29.759-23.982 46.439zM733.322 870.529h-584.297v-635.928h356.939l51.371-49.522-1.33-1.33h-406.979c-28.038 0-50.787 22.781-50.787 50.853v635.928c0 28.072 22.748 50.853 50.787 50.853h584.297c28.038 0 50.755-22.781 50.755-50.853v-372.548l-50.755 48.548v324z" p-id="2317"></path>
    </symbol>
</svg>